<mxfile host="app.diagrams.net" modified="2023-10-11T09:30:45.307Z" agent="Mozilla/5.0 (Windows NT 10.0; Win64; x64) AppleWebKit/537.36 (KHTML, like Gecko) Chrome/117.0.0.0 Safari/537.36" etag="vpbrA8H9y2H6dSyiTk94" version="22.0.4" type="device">
  <diagram name="1 oldal" id="RMf6y5_obdOdZjIeBnyi">
    <mxGraphModel dx="2261" dy="790" grid="1" gridSize="10" guides="1" tooltips="1" connect="1" arrows="1" fold="1" page="1" pageScale="1" pageWidth="827" pageHeight="1169" math="0" shadow="0">
      <root>
        <mxCell id="0" />
        <mxCell id="1" parent="0" />
        <mxCell id="un-u-f8fUQM7BjyOaJRZ-424" value="BÖRTÖN" style="rounded=1;whiteSpace=wrap;html=1;" vertex="1" parent="1">
          <mxGeometry x="330" width="120" height="60" as="geometry" />
        </mxCell>
        <mxCell id="un-u-f8fUQM7BjyOaJRZ-427" value="" style="endArrow=none;html=1;rounded=0;" edge="1" parent="1">
          <mxGeometry width="50" height="50" relative="1" as="geometry">
            <mxPoint x="280" y="110" as="sourcePoint" />
            <mxPoint x="330" y="60" as="targetPoint" />
          </mxGeometry>
        </mxCell>
        <mxCell id="un-u-f8fUQM7BjyOaJRZ-428" value="Egy kulcd" style="ellipse;whiteSpace=wrap;html=1;" vertex="1" parent="1">
          <mxGeometry x="250" y="110" width="50" height="40" as="geometry" />
        </mxCell>
        <mxCell id="un-u-f8fUQM7BjyOaJRZ-429" value="" style="endArrow=none;html=1;rounded=0;entryX=0.565;entryY=0.987;entryDx=0;entryDy=0;entryPerimeter=0;" edge="1" parent="1" target="un-u-f8fUQM7BjyOaJRZ-424">
          <mxGeometry width="50" height="50" relative="1" as="geometry">
            <mxPoint x="400" y="130" as="sourcePoint" />
            <mxPoint x="400" y="100" as="targetPoint" />
          </mxGeometry>
        </mxCell>
        <mxCell id="un-u-f8fUQM7BjyOaJRZ-431" value="kerítés&lt;br&gt;átvágás" style="ellipse;whiteSpace=wrap;html=1;aspect=fixed;" vertex="1" parent="1">
          <mxGeometry x="374" y="120" width="50" height="50" as="geometry" />
        </mxCell>
        <mxCell id="un-u-f8fUQM7BjyOaJRZ-432" value="" style="endArrow=none;html=1;rounded=0;" edge="1" parent="1" target="un-u-f8fUQM7BjyOaJRZ-433">
          <mxGeometry width="50" height="50" relative="1" as="geometry">
            <mxPoint x="500" y="150" as="sourcePoint" />
            <mxPoint x="460" y="80" as="targetPoint" />
          </mxGeometry>
        </mxCell>
        <mxCell id="un-u-f8fUQM7BjyOaJRZ-433" value="kiásás" style="ellipse;whiteSpace=wrap;html=1;aspect=fixed;" vertex="1" parent="1">
          <mxGeometry x="480" y="130" width="40" height="40" as="geometry" />
        </mxCell>
        <mxCell id="un-u-f8fUQM7BjyOaJRZ-434" value="" style="endArrow=none;html=1;rounded=0;entryX=0.933;entryY=0.983;entryDx=0;entryDy=0;entryPerimeter=0;" edge="1" parent="1" source="un-u-f8fUQM7BjyOaJRZ-433" target="un-u-f8fUQM7BjyOaJRZ-424">
          <mxGeometry width="50" height="50" relative="1" as="geometry">
            <mxPoint x="400" y="130" as="sourcePoint" />
            <mxPoint x="450" y="80" as="targetPoint" />
          </mxGeometry>
        </mxCell>
        <mxCell id="un-u-f8fUQM7BjyOaJRZ-435" value="SZÖVEG" style="rounded=1;whiteSpace=wrap;html=1;" vertex="1" parent="1">
          <mxGeometry y="181" width="770" height="60" as="geometry" />
        </mxCell>
        <mxCell id="un-u-f8fUQM7BjyOaJRZ-436" value="szükséges&lt;br&gt;&lt;br&gt;eszközök:xxx" style="rounded=0;whiteSpace=wrap;html=1;" vertex="1" parent="1">
          <mxGeometry x="-9" y="241" width="120" height="60" as="geometry" />
        </mxCell>
        <mxCell id="un-u-f8fUQM7BjyOaJRZ-437" value="erfdő" style="rounded=0;whiteSpace=wrap;html=1;" vertex="1" parent="1">
          <mxGeometry x="200" y="320" width="120" height="60" as="geometry" />
        </mxCell>
        <mxCell id="un-u-f8fUQM7BjyOaJRZ-438" value="&lt;font style=&quot;font-size: 100px;&quot;&gt;random events&lt;/font&gt;" style="rounded=0;whiteSpace=wrap;html=1;" vertex="1" parent="1">
          <mxGeometry x="-460" y="20" width="330" height="1640" as="geometry" />
        </mxCell>
        <mxCell id="un-u-f8fUQM7BjyOaJRZ-440" value="utcára,épület mögé" style="rounded=0;whiteSpace=wrap;html=1;" vertex="1" parent="1">
          <mxGeometry x="360" y="320" width="120" height="60" as="geometry" />
        </mxCell>
        <mxCell id="un-u-f8fUQM7BjyOaJRZ-441" value="utca, hangzavar" style="rounded=0;whiteSpace=wrap;html=1;" vertex="1" parent="1">
          <mxGeometry x="500" y="320" width="120" height="60" as="geometry" />
        </mxCell>
        <mxCell id="un-u-f8fUQM7BjyOaJRZ-443" value="bajtárs/ taxi" style="rounded=0;whiteSpace=wrap;html=1;" vertex="1" parent="1">
          <mxGeometry x="20" y="330" width="120" height="60" as="geometry" />
        </mxCell>
        <mxCell id="un-u-f8fUQM7BjyOaJRZ-444" value="esélyek" style="rounded=0;whiteSpace=wrap;html=1;" vertex="1" parent="1">
          <mxGeometry x="231" y="241" width="120" height="60" as="geometry" />
        </mxCell>
        <mxCell id="un-u-f8fUQM7BjyOaJRZ-445" value="sok léps" style="rounded=0;whiteSpace=wrap;html=1;" vertex="1" parent="1">
          <mxGeometry x="111" y="241" width="120" height="60" as="geometry" />
        </mxCell>
        <mxCell id="un-u-f8fUQM7BjyOaJRZ-446" value="kint vagy" style="rounded=0;whiteSpace=wrap;html=1;" vertex="1" parent="1">
          <mxGeometry x="-15" y="390" width="800" height="60" as="geometry" />
        </mxCell>
        <mxCell id="un-u-f8fUQM7BjyOaJRZ-447" value="tiszt. m8unka" style="rounded=0;whiteSpace=wrap;html=1;" vertex="1" parent="1">
          <mxGeometry x="150" y="480" width="120" height="60" as="geometry" />
        </mxCell>
        <mxCell id="un-u-f8fUQM7BjyOaJRZ-449" value="újra bűn" style="rounded=0;whiteSpace=wrap;html=1;" vertex="1" parent="1">
          <mxGeometry x="-15" y="480" width="120" height="60" as="geometry" />
        </mxCell>
        <mxCell id="un-u-f8fUQM7BjyOaJRZ-450" value="elvomulsz" style="rounded=0;whiteSpace=wrap;html=1;" vertex="1" parent="1">
          <mxGeometry x="325" y="480" width="120" height="60" as="geometry" />
        </mxCell>
        <mxCell id="un-u-f8fUQM7BjyOaJRZ-451" value="elkurod az eleted" style="rounded=0;whiteSpace=wrap;html=1;" vertex="1" parent="1">
          <mxGeometry x="520" y="480" width="120" height="60" as="geometry" />
        </mxCell>
        <mxCell id="un-u-f8fUQM7BjyOaJRZ-458" style="edgeStyle=orthogonalEdgeStyle;rounded=0;orthogonalLoop=1;jettySize=auto;html=1;exitX=0.5;exitY=1;exitDx=0;exitDy=0;" edge="1" parent="1" source="un-u-f8fUQM7BjyOaJRZ-452">
          <mxGeometry relative="1" as="geometry">
            <mxPoint x="790" y="740" as="targetPoint" />
          </mxGeometry>
        </mxCell>
        <mxCell id="un-u-f8fUQM7BjyOaJRZ-452" value="visszavisznek" style="rounded=0;whiteSpace=wrap;html=1;" vertex="1" parent="1">
          <mxGeometry x="670" y="470" width="130" height="230" as="geometry" />
        </mxCell>
        <mxCell id="un-u-f8fUQM7BjyOaJRZ-453" value="" style="endArrow=none;html=1;rounded=0;" edge="1" parent="1">
          <mxGeometry width="50" height="50" relative="1" as="geometry">
            <mxPoint x="630" y="750" as="sourcePoint" />
            <mxPoint x="680" y="710" as="targetPoint" />
            <Array as="points">
              <mxPoint x="650" y="720" />
            </Array>
          </mxGeometry>
        </mxCell>
        <mxCell id="un-u-f8fUQM7BjyOaJRZ-454" value="öngy." style="rounded=0;whiteSpace=wrap;html=1;" vertex="1" parent="1">
          <mxGeometry x="580" y="750" width="120" height="60" as="geometry" />
        </mxCell>
        <mxCell id="un-u-f8fUQM7BjyOaJRZ-457" value="" style="edgeStyle=orthogonalEdgeStyle;rounded=0;orthogonalLoop=1;jettySize=auto;html=1;" edge="1" parent="1" source="un-u-f8fUQM7BjyOaJRZ-455" target="un-u-f8fUQM7BjyOaJRZ-452">
          <mxGeometry relative="1" as="geometry" />
        </mxCell>
        <mxCell id="un-u-f8fUQM7BjyOaJRZ-455" value="újrA" style="rounded=0;whiteSpace=wrap;html=1;" vertex="1" parent="1">
          <mxGeometry x="730" y="750" width="120" height="60" as="geometry" />
        </mxCell>
        <mxCell id="un-u-f8fUQM7BjyOaJRZ-456" value="" style="endArrow=none;html=1;rounded=0;entryX=0.921;entryY=0.994;entryDx=0;entryDy=0;entryPerimeter=0;exitX=0.5;exitY=0;exitDx=0;exitDy=0;" edge="1" parent="1" source="un-u-f8fUQM7BjyOaJRZ-455" target="un-u-f8fUQM7BjyOaJRZ-452">
          <mxGeometry width="50" height="50" relative="1" as="geometry">
            <mxPoint x="790" y="740" as="sourcePoint" />
            <mxPoint x="810" y="720" as="targetPoint" />
            <Array as="points">
              <mxPoint x="790" y="720" />
              <mxPoint x="800" y="720" />
              <mxPoint x="800" y="710" />
            </Array>
          </mxGeometry>
        </mxCell>
        <mxCell id="un-u-f8fUQM7BjyOaJRZ-459" value="RANDOM HALAL" style="rounded=0;whiteSpace=wrap;html=1;" vertex="1" parent="1">
          <mxGeometry x="-130" y="1060" width="650" height="60" as="geometry" />
        </mxCell>
        <mxCell id="un-u-f8fUQM7BjyOaJRZ-460" value="" style="endArrow=none;html=1;rounded=0;" edge="1" parent="1">
          <mxGeometry width="50" height="50" relative="1" as="geometry">
            <mxPoint x="460" y="1169" as="sourcePoint" />
            <mxPoint x="510" y="1119" as="targetPoint" />
          </mxGeometry>
        </mxCell>
        <mxCell id="un-u-f8fUQM7BjyOaJRZ-461" value="ESELYEK, FAJTAK" style="rounded=0;whiteSpace=wrap;html=1;" vertex="1" parent="1">
          <mxGeometry x="413" y="1160" width="120" height="60" as="geometry" />
        </mxCell>
      </root>
    </mxGraphModel>
  </diagram>
</mxfile>
